<svg version="1.1" id="Layer_1" xmlns="http://www.w3.org/2000/svg" xmlns:xlink="http://www.w3.org/1999/xlink" x="0px" y="0px" viewBox="0 0 485 485" xml:space="preserve">
<g>
  <path d="M 439.6 0 L 49.6 0 C 22.2 0 0 22.2 0 49.6 L 0 439.6 C 0 467 22.2 489.2 49.6 489.2 L 439.6 489.2 C 467 489.2 489.2 467 489.2 439.6 L 489.2 49.7 C 489.3 22.3 467 0 439.6 0 Z M 300.6 47.8 L 343.1 47.8 L 343.1 90.3 L 300.6 90.3 L 300.6 47.8 Z M 223.4 47.8 L 265.9 47.8 L 265.9 90.3 L 223.4 90.3 L 223.4 47.8 Z M 146.1 47.8 L 188.6 47.8 L 188.6 90.3 L 146.1 90.3 L 146.1 47.8 Z M 111.3 441.6 L 68.8 441.6 L 68.8 399.1 L 111.3 399.1 L 111.3 441.6 Z M 111.3 90.3 L 68.8 90.3 L 68.8 47.8 L 111.3 47.8 L 111.3 90.3 Z M 188.6 441.6 L 146.1 441.6 L 146.1 399.1 L 188.6 399.1 L 188.6 441.6 Z M 265.8 441.6 L 223.3 441.6 L 223.3 399.1 L 265.8 399.1 L 265.8 441.6 Z M 343.1 441.6 L 300.6 441.6 L 300.6 399.1 L 343.1 399.1 L 343.1 441.6 Z M 168.6 338.9 L 189.4 350.9 C 180.2 356.2 168.6 349.6 168.6 338.9 Z M 420.4 441.6 L 377.9 441.6 L 377.9 399.1 L 420.4 399.1 L 420.4 441.6 Z M 420.4 90.3 L 377.9 90.3 L 377.9 47.8 L 420.4 47.8 L 420.4 90.3 Z" style="fill: rgb(61, 61, 61);"></path>
  <path d="M 352.479 256.794 L 189.379 350.994 C 180.179 356.294 168.579 349.694 168.579 338.994 L 168.579 150.594 C 168.579 139.894 180.179 133.294 189.379 138.594 L 352.479 232.794 C 361.779 238.094 361.779 251.494 352.479 256.794 Z" style="fill: rgb(245,245,245);"></path>
</g>
</svg>
